# AST/ASF file generated using VICON BodyLanguage
# -----------------------------------------------
:version 1.10
:name VICON
:units
  mass 1.0
  length 0.45
  angle deg
:documentation
   .ast/.asf automatically generated from VICON data using
   VICON BodyBuilder and BodyLanguage model FoxedUp or BRILLIANT.MOD
:root
   order TX TY TZ RX RY RZ
   axis XYZ
   position 0 0 0  
   orientation 0 0 0 
:bonedata
  begin
     id 1 
     name lhipjoint
     direction 0.567725 -0.736092 0.368589 
     length 2.42353 
     axis 0 0 0  XYZ
  end
  begin
     id 2 
     name lfemur
     direction 0.34202 -0.939693 0  
     length 7.24894  
     axis 0 0 20  XYZ
    dof rx ry rz
    limits (-160.0 20.0)
           (-70.0 70.0)
           (-60.0 70.0)
  end
  begin
     id 3 
     name ltibia
     direction 0.34202 -0.939693 0   
     length 7.6997   
     axis 0 0 20   XYZ
    dof rx
    limits (-10.0 170.0)
  end
  begin
     id 4 
     name lfoot
     direction 0.100767 -0.276854 0.955614   
     length 2.37556   
     axis -90 7.62852e-016 20   XYZ
    dof rx rz
    limits (-45.0 90.0)
           (-70.0 20.0)
  end
  begin
     id 5 
     name ltoes
     direction 1.53592e-011 -4.21894e-011 1   
     length 1.18363   
     axis -90 7.62852e-016 20   XYZ
    dof rx
    limits (-90.0 20.0)
  end
  begin
     id 6 
     name rhipjoint
     direction -0.556459 -0.742938 0.372017   
     length 2.4012  
     axis 0 0 0  XYZ 
  end
  begin
     id 7 
     name rfemur
     direction -0.34202 -0.939693 0   
     length 7.5119   
     axis 0 0 -20   XYZ
    dof rx ry rz
    limits (-160.0 20.0)
           (-70.0 70.0)
           (-70.0 60.0)
  end
  begin
     id 8 
     name rtibia
     direction -0.34202 -0.939693 0   
     length 7.50155   
     axis 0 0 -20   XYZ
    dof rx
    limits (-10.0 170.0)
 end
 begin
     id 9 
     name rfoot
     direction -0.118427 -0.325376 0.938139   
     length 2.32487  
     axis -90 -7.62852e-016 -20   XYZ
    dof rx rz
    limits (-45.0 90.0)
           (-20.0 70.0)
  end
  begin
     id 10 
     name rtoes
     direction -1.53525e-011 -4.21868e-011 1   
     length 1.15233   
     axis -90 -7.62852e-016 -20   XYZ
    dof rx
    limits (-90.0 20.0)
  end
  begin
     id 11 
     name lowerback
     direction 0.0287568 0.999577 -0.00434502   
     length 2.15243   
     axis 0 0 0   XYZ
    dof rx ry rz
    limits (-20.0 45.0)
           (-30.0 30.0)
           (-30.0 30.0)
  end
  begin
     id 12 
     name upperback
     direction 0.0294009 0.99956 0.00404628   
     length 2.15427   
     axis 0 0 0   XYZ
    dof rx ry rz
    limits (-20.0 45.0)
           (-30.0 30.0)
           (-30.0 30.0)
  end
  begin
     id 13 
     name thorax
     direction 0.0151014 0.999868 0.0059419   
     length 2.14898   
     axis 0 0 0   XYZ
    dof rx ry rz
    limits (-20.0 45.0)
           (-30.0 30.0)
           (-30.0 30.0)
  end
  begin
     id 14 
     name lowerneck
     direction -0.0249197 0.989906 0.139515   
     length 1.6861   
     axis 0 0 0   XYZ
    dof rx ry rz
    limits (-20.0 45.0)
           (-30.0 30.0)
           (-30.0 30.0)
  end
  begin
     id 15 
     name upperneck
     direction 0.0438463 0.988795 -0.142693   
     length 1.71276   
     axis 0 0 0   XYZ
    dof rx ry rz
    limits (-20.0 45.0)
           (-30.0 30.0)
           (-30.0 30.0)
  end
  begin
     id 16
     name head
     direction 0.0148499 0.997845 -0.0639186  
     length 1.7209  
     axis 0 0 0   XYZ
    dof rx ry rz
    limits (-20.0 45.0)
           (-30.0 30.0)
           (-30.0 30.0)
  end
  begin
     id 17 
     name lclavicle
     direction 0.940298 0.323464 -0.105876  
     length 3.9048  
     axis 0 0 0   XYZ
    dof ry rz
    limits (-20.0 10.0)
           (0.0 20.0)
  end
  begin
     id 18 
     name lhumerus
     direction 1 -4.48954e-011 -4.9675e-028   
     length 4.6851   
     axis 180 -30 -90   XYZ
    dof rx ry rz
    limits (-60.0 90.0)
           (-90.0 90.0)
           (-90.0 90.0)
  end
  begin
     id 19
     name lradius
     direction 1 -4.48992e-011 -1.03359e-026   
     length 3.39626   
     axis 180 -30 -90   XYZ
    dof rx
    limits (-10.0 170.0)
  end
  begin
     id 20
     name lwrist
     direction 1 -4.48906e-011 -1.67336e-026   
     length 1.69813   
     axis 9.90442e-015 90 90   XYZ
    dof ry
    limits (-180.0 0.0)
 end
  begin
     id 21 
     name lhand
     direction 1 -4.49006e-011 -3.34673e-026   
     length 0.486078   
     axis 2.1355e-014 90 90   XYZ
    dof rx rz
    limits (-90.0 90.0)
           (-45.0 45.0)
  end
  begin
     id 22 
     name lfingers
     direction 1 -4.48992e-011 -6.69345e-026   
     length 0.391889   
     axis 4.27099e-014 90 90   XYZ
    dof rx
    limits (0.0 90.0)
  end
  begin
     id 23
     name lthumb
     direction 0.707107 -6.34926e-011 0.707107   
     length 0.562676   
     axis -90 45 2.85299e-015   XYZ
    dof rx rz
    limits (-45.0 45.0)
           (-45.0 45.0)
  end
  begin
     id 24 
     name rclavicle
     direction -0.882459 0.414895 -0.221648   
     length 3.44646  
     axis 0 0 0   XYZ 
    dof ry rz
    limits (-10.0 20.0)
           (-20.0 0.0)
  end
  begin
     id 25 
     name rhumerus
     direction -1 -4.48962e-011 -2.37984e-027  
     length 5.55576   
     axis 180 30 90   XYZ
    dof rx ry rz
    limits (-90.0 60.0)
           (-90.0 90.0)
           (-90.0 90.0)
  end
  begin
     id 26 
     name rradius
     direction -1 -4.48982e-011 -6.86791e-027   
     length 3.32774   
     axis 180 30 90   XYZ
    dof rx
    limits (-10.0 170.0)
  end
  begin
     id 27 
     name rwrist
     direction -1 -4.48961e-011 -1.67336e-026   
     length 1.66387   
     axis 9.90442e-015 -90 -90   XYZ
    dof ry
    limits (-180.0 0.0)
  end
  begin
     id 28
     name rhand
     direction -1 -4.4897e-011 -3.34673e-026   
     length 0.507628   
     axis 2.1355e-014 -90 -90   XYZ
    dof rx rz
    limits (-90.0 90.0)
           (-45.0 45.0)
  end
  begin
     id 29
     name rfingers
     direction -1 -4.48854e-011 -6.69345e-026   
     length 0.409263   
     axis 4.27099e-014 -90 -90   XYZ
    dof rx
    limits (0.0 90.0)
  end
  begin
     id 30
     name rthumb
     direction -0.707107 -6.34913e-011 0.707107   
     length 0.587622   
     axis -90 -45 -2.85299e-015   XYZ
    dof rx rz
    limits (-45.0 45.0)
           (-45.0 45.0)
  end
:hierarchy
  begin
    root lhipjoint rhipjoint lowerback
    lhipjoint lfemur
    lfemur ltibia
    ltibia lfoot
    lfoot ltoes
    rhipjoint rfemur
    rfemur rtibia
    rtibia rfoot
    rfoot rtoes
    lowerback upperback
    upperback thorax
    thorax lowerneck lclavicle rclavicle
    lowerneck upperneck
    upperneck head
    lclavicle lhumerus
    lhumerus lradius
    lradius lwrist
    lwrist lhand lthumb
    lhand lfingers
    rclavicle rhumerus
    rhumerus rradius
    rradius rwrist
    rwrist rhand rthumb
    rhand rfingers
  end

#!OML:ASF E:\motion texture\Top Level 1\Subject 1\Session 1\male.ASF
:FULLY-SPECIFIED
:DEGREES
32
root 28.5229 17.4901 5.41835 43.4843 -87.6951 -34.3449
lowerback -0.371169 -2.40893 1.72839
upperback 0.85011 -3.33492 3.95177
thorax 1.21938 -1.70084 3.04049
lowerneck -13.972 -1.40657 -5.22483
upperneck 26.1356 -1.21783 0.0421109
head 10.7566 -1.26648 0.704593
rclavicle 1.19271e-014 -7.95139e-015
rhumerus -26.5554 -18.412 -62.0765
rradius 37.5768
rwrist -1.20144
rhand -1.41676 -19.8283
rfingers 7.12502
rthumb 24.2327 -48.3171
lclavicle 1.19271e-014 -7.95139e-015
lhumerus -34.6656 19.5057 63.2836
lradius 27.8208
lwrist -22.1445
lhand 0.715691 13.3212
lfingers 7.12502
lthumb 26.2757 41.5217
rfemur -34.9393 -3.24643 23.6103
rtibia 24.814
rfoot 1.7527 -13.195
rtoes 22.6687
lfemur -1.19788 -4.80762 -19.9932
ltibia 32.355
lfoot -6.69189 -5.73791
ltoes -18.2184
33
root 28.3596 17.5218 5.3942 51.8349 -87.5152 -42.716
lowerback -0.516832 -2.30715 1.96953
upperback 0.769111 -3.21328 4.14132
thorax 1.21109 -1.64156 3.09891
lowerneck -13.8766 -1.58582 -5.30473
upperneck 26.0581 -1.58797 0.523906
head 10.7227 -1.38199 0.843294
rclavicle 1.5704e-014 -3.10104e-014
rhumerus -26.3275 -18.0731 -60.1642
rradius 38.828
rwrist -2.04869
rhand -0.823204 -19.73
rfingers 7.12502
rthumb 24.8017 -48.1416
lclavicle 1.5704e-014 -3.10104e-014
lhumerus -34.9079 18.8331 61.1346
lradius 29.0851
lwrist -20.3093
lhand 1.39588 13.1726
lfingers 7.12502
lthumb 26.9267 41.2743
rfemur -34.1547 -3.16821 24.1905
rtibia 24.5887
rfoot 1.3662 -12.9243
rtoes 23.1569
lfemur -2.07355 -4.41117 -19.1626
ltibia 34.2135
lfoot -4.7896 -6.41749
ltoes -19.5528
34
root 28.1987 17.5525 5.36992 59.3309 -87.2781 -50.2376
lowerback -0.649568 -2.18969 2.21925
upperback 0.681603 -3.07113 4.33321
thorax 1.18795 -1.57232 3.1565
lowerneck -13.7753 -1.77537 -5.3888
upperneck 25.9401 -1.97162 1.0128
head 10.6759 -1.50276 0.983491
rclavicle 7.95139e-016 -2.06736e-014
rhumerus -26.0497 -17.729 -58.1202
rradius 40.075
rwrist -2.92913
rhand -0.298439 -19.663
rfingers 7.12502
rthumb 25.3045 -48.0045
lclavicle 7.95139e-016 -2.06736e-014
lhumerus -35.0211 18.1111 58.8786
lradius 30.3889
lwrist -18.4138
lhand 1.79198 13.334
lfingers 7.12502
lthumb 27.3056 41.3767
rfemur -33.3515 -3.10994 24.8018
rtibia 24.328
rfoot 0.970694 -12.6719
rtoes 23.505
lfemur -3.00326 -3.98643 -18.3052
ltibia 36.0872
lfoot -2.62874 -7.0576
ltoes -20.1553
35
root 28.0408 17.5818 5.34606 65.6723 -86.9871 -56.6204
lowerback -0.747457 -2.06651 2.47753
upperback 0.586713 -2.92043 4.529
thorax 1.1374 -1.49925 3.21555
lowerneck -13.6735 -1.96603 -5.47559
upperneck 25.7851 -2.35259 1.4989
head 10.6182 -1.62283 1.12338
rclavicle -1.98785e-014 -3.18055e-015
rhumerus -25.6961 -17.3939 -55.9464
rradius 41.2793
rwrist -3.81112
rhand 0.103453 -19.6755
rfingers 7.12502
rthumb 25.6895 -47.962
lclavicle -1.98785e-014 -3.18055e-015
lhumerus -35.0054 17.366 56.5121
lradius 31.6988
lwrist -16.4966
lhand 1.88326 13.7249
lfingers 7.12502
lthumb 27.3929 41.7537
rfemur -32.5234 -3.08585 25.433
rtibia 24.0324
rfoot 0.574595 -12.398
rtoes 23.7227
lfemur -3.96615 -3.56604 -17.4445
ltibia 37.9843
lfoot -0.284566 -7.6354
ltoes -19.9717
36
root 27.8858 17.6092 5.32293 70.7738 -86.6439 -61.7885
lowerback -0.801665 -1.94449 2.74518
upperback 0.485596 -2.76969 4.73236
thorax 1.05618 -1.42678 3.27935
lowerneck -13.5697 -2.15194 -5.55847
upperneck 25.5997 -2.71993 1.96572
head 10.5509 -1.73893 1.25727
rclavicle 3.49861e-014 -4.21423e-014
rhumerus -25.254 -17.0714 -53.6469
rradius 42.416
rwrist -4.69512
rhand 0.352764 -19.7844
rfingers 7.12502
rthumb 25.9282 -48.0361
lclavicle 3.49861e-014 -4.21423e-014
lhumerus -34.8544 16.6101 54.0416
lradius 32.9772
lwrist -14.5896
lhand 1.66496 14.3503
lfingers 7.12502
lthumb 27.1841 42.412
rfemur -31.6628 -3.10166 26.0794
rtibia 23.7056
rfoot 0.172838 -12.1008
rtoes 23.866
lfemur -4.9421 -3.16755 -16.5905
ltibia 39.8969
lfoot 2.21239 -8.09788
ltoes -18.7864
37
root 27.7339 17.6344 5.30066 74.689 -86.2559 -65.799
lowerback -0.802725 -1.82857 3.02592
upperback 0.376038 -2.62404 4.94026
thorax 0.936566 -1.35755 3.34273
lowerneck -13.4719 -2.32865 -5.6271
upperneck 25.4009 -3.06768 2.40453
head 10.4811 -1.84881 1.38097
rclavicle 3.18055e-015 3.02153e-014
rhumerus -24.7139 -16.784 -51.2341
rradius 43.4542
rwrist -5.55984
rhand 0.441439 -19.996
rfingers 7.12502
rthumb 26.0131 -48.2353
lclavicle 3.18055e-015 3.02153e-014
lhumerus -34.5612 15.8578 51.4661
lradius 34.1835
lwrist -12.7056
lhand 1.17894 15.0943
lfingers 7.12502
lthumb 26.7191 43.2278
rfemur -30.7766 -3.15442 26.7337
rtibia 23.3646
rfoot -0.232598 -11.8002
rtoes 23.95
lfemur -5.92597 -2.80854 -15.7501
ltibia 41.8373
lfoot 4.52548 -8.55424
ltoes -16.9896
38
root 27.5849 17.6571 5.27917 77.7034 -85.8364 -68.9352
lowerback -0.778948 -1.72004 3.31628
upperback 0.271772 -2.4871 5.15097
thorax 0.808801 -1.29333 3.40423
lowerneck -13.3806 -2.49271 -5.6883
upperneck 25.1884 -3.38974 2.81802
head 10.4082 -1.94991 1.4974
rclavicle -4.37326e-015 1.03368e-014
rhumerus -24.0581 -16.5437 -48.7321
rradius 44.3845
rwrist -6.42625
rhand 0.367823 -20.2695
rfingers 7.12502
rthumb 25.9426 -48.5192
lclavicle -4.37326e-015 1.03368e-014
lhumerus -34.1085 15.159 48.7869
lradius 35.2762
lwrist -10.878
lhand 0.516508 15.843
lfingers 7.12502
lthumb 26.085 44.0718
rfemur -29.8749 -3.22192 27.3875
rtibia 23.0225
rfoot -0.632625 -11.5171
rtoes 23.9976
lfemur -6.91485 -2.48889 -14.9278
ltibia 43.8001
lfoot 6.56286 -8.9879
ltoes -14.7211
39
root 27.4384 17.6772 5.25835 80.0018 -85.3821 -71.3806
lowerback -0.720932 -1.6192 3.62707
upperback 0.166588 -2.35806 5.3647
thorax 0.660774 -1.23382 3.45846
lowerneck -13.3137 -2.64646 -5.73679
upperneck 24.9871 -3.68975 3.20115
head 10.3443 -2.04415 1.60322
rclavicle -7.15625e-015 1.82882e-014
rhumerus -23.2943 -16.364 -46.1564
rradius 45.1931
rwrist -7.31288
rhand 0.198533 -20.5652
rfingers 7.12502
rthumb 25.7805 -48.8385
lclavicle -7.15625e-015 1.82882e-014
lhumerus -33.5023 14.5247 46.0134
lradius 36.2334
lwrist -9.11447
lhand -0.319042 16.6173
lfingers 7.12502
lthumb 25.2848 44.9616
rfemur -28.955 -3.28915 28.0498
rtibia 22.6772
rfoot -1.02943 -11.2581
rtoes 24.0195
lfemur -7.90699 -2.21124 -14.1119
ltibia 45.773
lfoot 8.24369 -9.34253
ltoes -12.232
40
root 27.2947 17.6952 5.23842 81.9448 -84.9131 -73.4852
lowerback -0.659756 -1.51891 3.95177
upperback 0.0714615 -2.22951 5.57294
thorax 0.520947 -1.17506 3.49902
lowerneck -13.2628 -2.79073 -5.77404
upperneck 24.7883 -3.97003 3.55885
head 10.2844 -2.13187 1.70025
rclavicle -1.74931e-014 8.74653e-015
rhumerus -22.4159 -16.2787 -43.5329
rradius 45.8713
rwrist -8.22533
rhand -0.0348824 -20.8673
rfingers 7.12502
rthumb 25.557 -49.1728
lclavicle -1.74931e-014 8.74653e-015
lhumerus -32.7332 13.9728 43.1599
lradius 37.0457
lwrist -7.38942
lhand -1.32547 17.4576
lfingers 7.12502
lthumb 24.3202 45.9347
rfemur -28.0375 -3.33492 28.711
rtibia 22.3442
rfoot -1.42181 -11.0218
rtoes 24.0116
lfemur -8.90426 -1.96153 -13.3139
ltibia 47.7342
lfoot 9.51663 -9.52677
ltoes -9.92772
41
root 27.1529 17.7115 5.21925 83.631 -84.4436 -75.3458
lowerback -0.583429 -1.42087 4.27455
upperback -0.0239053 -2.10172 5.77578
thorax 0.372646 -1.11731 3.53543
lowerneck -13.2286 -2.9265 -5.80835
upperneck 24.6074 -4.23099 3.88927
head 10.2341 -2.21445 1.78922
rclavicle -4.37326e-015 7.95139e-015
rhumerus -21.4375 -16.2783 -40.8771
rradius 46.4247
rwrist -9.17679
rhand -0.40731 -21.2337
rfingers 7.12502
rthumb 25.2002 -49.5899
lclavicle -4.37326e-015 7.95139e-015
lhumerus -31.831 13.5092 40.2431
lradius 37.7195
lwrist -5.6501
lhand -2.4154 18.3007
lfingers 7.12502
lthumb 23.2749 46.914
rfemur -27.1154 -3.35109 29.3602
rtibia 22.0064
rfoot -1.79259 -10.819
rtoes 23.9268
lfemur -9.89737 -1.74081 -12.5461
ltibia 49.6575
lfoot 10.3085 -9.49145
ltoes -8.30463
42
root 27.0129 17.7267 5.2009 85.1682 -83.9965 -77.0662
lowerback -0.501734 -1.32264 4.57578
upperback -0.113844 -1.97182 5.96575
thorax 0.227482 -1.05881 3.57045
lowerneck -13.2184 -3.05647 -5.84205
upperneck 24.4449 -4.47691 4.19773
head 10.1951 -2.29301 1.87182
rclavicle 2.34566e-014 -1.90833e-014
rhumerus -20.3631 -16.3805 -38.2142
rradius 46.863
rwrist -10.1778
rhand -0.947144 -21.7387
rfingers 7.12502
rthumb 24.6829 -50.1666
lclavicle 2.34566e-014 -1.90833e-014
lhumerus -30.7981 13.1361 37.2872
lradius 38.2671
lwrist -3.85263
lhand -3.66981 19.3658
lfingers 7.12502
lthumb 22.071 48.1263
rfemur -26.1911 -3.3349 29.9754
rtibia 21.665
rfoot -2.14364 -10.651
rtoes 23.7772
lfemur -10.882 -1.53788 -11.831
ltibia 51.5203
lfoot 10.5903 -9.22609
ltoes -7.59466
43
root 26.8744 17.7417 5.18334 86.6251 -83.5925 -78.7121
lowerback -0.404356 -1.22518 4.83599
upperback -0.205776 -1.83899 6.13665
thorax 0.072286 -0.998989 3.60884
lowerneck -13.2347 -3.18213 -5.87693
upperneck 24.3102 -4.71111 4.48659
head 10.1712 -2.36893 1.94875
rclavicle -5.36719e-015 3.33958e-014
rhumerus -19.2067 -16.5929 -35.5641
rradius 47.1944
rwrist -11.2159
rhand -1.65169 -22.4168
rfingers 7.12502
rthumb 24.0074 -50.9355
lclavicle -5.36719e-015 3.33958e-014
lhumerus -29.6575 12.857 34.3052
lradius 38.7048
lwrist -1.95734
lhand -4.98828 20.5665
lfingers 7.12502
lthumb 20.8047 49.4711
rfemur -25.2628 -3.2828 30.5331
rtibia 21.3129
rfoot -2.47465 -10.5194
rtoes 23.5769
lfemur -11.8491 -1.34673 -11.1881
ltibia 53.3026
lfoot 10.3711 -8.76085
ltoes -7.71818
44
root 26.7368 17.7567 5.1668 88.0812 -83.2482 -80.3617
lowerback -0.321353 -1.12744 5.04428
upperback -0.280519 -1.70566 6.28097
thorax -0.0562555 -0.938253 3.64751
lowerneck -13.283 -3.30711 -5.91832
upperneck 24.1876 -4.93912 4.76886
head 10.1586 -2.44306 2.02472
rclavicle 1.78906e-015 -9.54166e-015
rhumerus -17.9571 -16.9561 -32.9599
rradius 47.4259
rwrist -12.2844
rhand -2.54664 -23.3017
rfingers 7.12502
rthumb 23.149 -51.9308
lclavicle 1.78906e-015 -9.54166e-015
lhumerus -28.4042 12.7081 31.317
lradius 39.0451
lwrist 0.0371807
lhand -6.30724 21.8295
lfingers 7.12502
lthumb 19.537 50.8679
rfemur -24.3287 -3.19945 31.0149
rtibia 20.9504
rfoot -2.78883 -10.4149
rtoes 23.3463
lfemur -12.7894 -1.15361 -10.6372
ltibia 54.9729
lfoot 9.74454 -8.12148
ltoes -8.42002
45
root 26.6 17.7724 5.15132 89.5855 -82.9682 -82.0578
lowerback -0.248152 -1.02908 5.19838
upperback -0.346896 -1.57041 6.39587
thorax -0.170024 -0.87573 3.68502
lowerneck -13.3425 -3.43045 -5.96289
upperneck 24.0715 -5.16213 5.04573
head 10.151 -2.5159 2.09963
rclavicle 1.59028e-014 -6.52014e-014
rhumerus -16.6346 -17.4866 -30.4207
rradius 47.5676
rwrist -13.3579
rhand -3.52734 -24.3188
rfingers 7.12502
rthumb 22.2078 -53.063
lclavicle 1.59028e-014 -6.52014e-014
lhumerus -27.0595 12.7188 28.3292
lradius 39.2978
lwrist 2.08953
lhand -7.53794 23.055
lfingers 7.12502
lthumb 18.3534 52.2092
rfemur -23.3958 -3.07845 31.4133
rtibia 20.5837
rfoot -3.09608 -10.3365
rtoes 23.1159
lfemur -13.7057 -0.955591 -10.1803
ltibia 56.5213
lfoot 8.82469 -7.34929
ltoes -9.30964
